# Blender v2.93.6 OBJ File: ''
# www.blender.org
mtllib Berry.mtl
o obon
v 0.258115 1.066673 -0.129640
v 0.418159 1.346039 -0.235325
v 0.527455 1.246471 -0.257592
v 0.409142 1.271021 -0.352924
v 0.527455 1.246471 -0.257592
v 0.418159 1.346039 -0.235325
v 0.409142 1.271021 -0.352924
v 0.418159 1.346039 -0.235325
v 0.258115 1.066673 -0.129640
v 0.527455 1.246471 -0.257592
v -0.340080 1.296979 -0.676745
v -0.124802 1.259926 -0.765531
v -0.262562 1.354243 -0.425051
v 0.042563 1.258283 -0.746570
v -0.139516 1.371965 -0.291282
v 0.015569 1.369140 -0.237366
v 0.177890 1.277186 -0.647756
v 0.399775 1.225548 -0.247160
v 0.483755 0.988877 -0.281085
v 0.338970 1.123154 -0.197886
v 0.408086 0.994185 -0.360499
v 0.305822 1.039803 -0.401115
v 0.534164 0.827999 -0.278461
v 0.225565 0.889575 -0.458287
v 0.396371 0.827036 -0.398715
v 0.513490 0.696999 -0.223693
v 0.352324 0.695994 -0.363073
v 0.470042 0.591760 -0.157232
v 0.154344 0.768662 -0.432972
v 0.299393 0.590812 -0.303594
v 0.496205 0.418650 -0.136620
v 0.091489 0.667296 -0.377819
v 0.271832 0.418196 -0.326486
v 0.459279 0.212754 -0.051454
v 0.004588 0.516747 -0.423093
v 0.197512 0.212393 -0.270820
v 0.331515 0.060093 0.092538
v -0.110354 0.326416 -0.383385
v 0.078210 0.059495 -0.119091
v 0.176406 -0.003781 0.234665
v -0.218711 0.169884 -0.228087
v -0.037657 -0.004569 0.056558
v -0.112540 0.042626 0.453674
v -0.287448 0.088777 -0.035634
v -0.213241 0.040625 0.370414
v -0.343038 0.135946 0.613421
v -0.330871 0.086190 0.326456
v -0.469939 0.375849 -0.179853
v -0.499761 0.262127 0.005333
v -0.430743 0.166150 0.346305
v -0.343038 0.135946 0.613421
v -0.494869 0.264465 0.410540
v -0.369970 0.539903 -0.333725
v -0.635887 0.467548 0.143018
v -0.632029 0.619181 -0.016172
v -0.217929 0.700854 -0.380774
v -0.538248 0.791558 -0.163998
v -0.627414 0.823219 0.243628
v -0.077736 0.808467 -0.345399
v -0.532999 1.003050 0.104689
v -0.364704 0.918187 -0.233748
v -0.005470 0.902489 -0.402735
v -0.192880 0.976419 -0.232027
v 0.088936 1.004467 -0.432794
v -0.115444 1.061935 -0.294652
v 0.226337 1.108545 -0.386683
v 0.305822 1.039803 -0.401115
v 0.338970 1.123154 -0.197886
v 0.165306 1.192554 -0.329061
v -0.006249 1.141570 -0.339432
v 0.000616 1.255378 -0.195281
v -0.108259 1.194502 -0.126317
v -0.186081 1.116261 -0.054045
v 0.168190 1.253835 -0.237178
v 0.165306 1.192554 -0.329061
v 0.338970 1.123154 -0.197886
v 0.202717 1.294379 -0.136994
v 0.070544 1.331982 -0.040754
v -0.026073 1.283538 0.052952
v -0.098680 1.209999 0.134363
v 0.219729 1.328860 0.076310
v 0.146745 1.280020 0.189761
v -0.242370 1.221529 0.242060
v 0.297412 1.293066 -0.068235
v 0.202717 1.294379 -0.136994
v 0.338970 1.123154 -0.197886
v 0.391787 1.260039 -0.030410
v 0.379141 1.270407 0.139069
v -0.358628 1.100572 -0.002403
v -0.396505 1.143036 0.387320
v -0.495114 0.958687 0.516365
v -0.009571 1.217632 0.430255
v -0.128550 1.138686 0.606008
v -0.520464 0.753763 0.591964
v 0.082703 1.206401 0.279115
v 0.249239 1.123432 0.528530
v 0.279872 1.134464 0.354950
v 0.333072 1.211877 0.262230
v 0.173119 1.029374 0.719250
v 0.459832 0.988748 0.320920
v 0.480184 0.934976 0.484547
v 0.504538 1.073527 0.229423
v 0.527162 1.151431 0.110389
v 0.488377 1.192319 -0.053104
v 0.391787 1.260039 -0.030410
v 0.338970 1.123154 -0.197886
v 0.539431 1.117902 -0.111050
v 0.610953 1.018415 0.020217
v 0.602859 0.918606 0.123911
v 0.564242 0.825344 0.209159
v 0.618527 0.721995 0.339194
v 0.607327 0.781513 -0.046994
v 0.568177 0.680953 0.029566
v 0.615483 0.900519 -0.127122
v 0.540904 1.038729 -0.195863
v 0.539431 1.117902 -0.111050
v 0.338970 1.123154 -0.197886
v 0.483755 0.988877 -0.281085
v 0.534164 0.827999 -0.278461
v 0.513490 0.696999 -0.223693
v 0.470042 0.591760 -0.157232
v 0.496205 0.418650 -0.136620
v 0.620887 0.535258 0.106177
v 0.459279 0.212754 -0.051454
v 0.601018 0.564232 0.499868
v 0.601963 0.348029 0.230501
v 0.331515 0.060093 0.092538
v 0.438929 0.811176 0.668915
v 0.468429 0.399599 0.625078
v 0.468884 0.190512 0.365154
v 0.176406 -0.003781 0.234665
v 0.055105 0.848896 0.836989
v 0.311405 0.637882 0.788633
v 0.291833 0.282434 0.683611
v 0.291693 0.105882 0.464791
v -0.112540 0.042626 0.453674
v -0.058224 0.092610 0.562555
v -0.343038 0.135946 0.613421
v -0.058218 0.177337 0.664979
v 0.158934 0.483030 0.821797
v -0.056615 0.661205 0.862259
v -0.120710 0.270121 0.730588
v -0.343038 0.135946 0.613421
v -0.222217 0.355612 0.749066
v -0.236744 0.954236 0.727870
v -0.303172 0.749726 0.770572
v -0.338211 0.395646 0.706479
v -0.343038 0.135946 0.613421
v -0.440545 0.399176 0.621845
v -0.632518 0.639275 0.362341
v -0.493228 0.343661 0.514336
v -0.343038 0.135946 0.613421
v 0.399775 1.225548 -0.247160
v 0.177890 1.277186 -0.647756
v -0.044791 1.254204 -0.491731
v 0.015569 1.369140 -0.237366
v 0.042563 1.258283 -0.746570
v -0.139516 1.371965 -0.291282
v -0.124802 1.259926 -0.765531
v -0.262562 1.354243 -0.425051
v -0.340080 1.296979 -0.676745
vt 0.143801 0.080337
vt 0.144968 0.244182
vt 0.019021 0.164966
vt 0.172716 0.234272
vt 0.229028 0.111059
vt 0.292790 0.229381
vt 0.019021 0.164966
vt 0.144968 0.244182
vt 0.152067 0.166948
vt 0.143801 0.080337
vt 0.385366 0.049326
vt 0.385366 0.201131
vt 0.315918 0.125500
vt 0.496934 0.237538
vt 0.497230 0.009239
vt 0.609093 0.016090
vt 0.608501 0.232646
vt 0.949116 0.123699
vt -0.106331 0.917203
vt -0.106346 0.975181
vt -0.191406 0.917203
vt -0.028140 0.917203
vt -0.223012 0.857697
vt 0.009476 0.857697
vt -0.106346 0.857697
vt -0.223012 0.814198
vt -0.106346 0.814198
vt -0.223012 0.767139
vt 0.009476 0.814198
vt -0.106346 0.767139
vt -0.223012 0.711949
vt 0.009476 0.767139
vt -0.106346 0.711949
vt -0.223012 0.627315
vt 0.009476 0.711949
vt -0.106346 0.627315
vt -0.223012 0.542375
vt 0.009476 0.627315
vt -0.106346 0.542375
vt -0.223012 0.450678
vt 0.009476 0.542375
vt -0.106346 0.450678
vt -0.222294 0.361602
vt 0.009476 0.450678
vt -0.106472 0.361584
vt -0.106346 0.279449
vt 0.009476 0.361565
vt 0.129833 0.542375
vt 0.129833 0.450678
vt 0.129833 0.361565
vt 0.129833 0.279449
vt 0.254738 0.361565
vt 0.129833 0.627315
vt 0.254738 0.450678
vt 0.254738 0.542375
vt 0.129833 0.711949
vt 0.254738 0.627315
vt 0.378300 0.542375
vt 0.129833 0.767139
vt 0.378300 0.627315
vt 0.254738 0.711949
vt 0.129833 0.814198
vt 0.254738 0.767139
vt 0.129833 0.857697
vt 0.254738 0.814198
vt 0.129824 0.917203
vt 0.037977 0.917203
vt 0.129833 0.975181
vt 0.217122 0.917203
vt 0.254738 0.857697
vt 0.378300 0.857697
vt 0.378300 0.814198
vt 0.378300 0.767139
vt 0.378261 0.917203
vt 0.297823 0.917203
vt 0.378300 0.975181
vt 0.460561 0.917203
vt 0.500000 0.857697
vt 0.500000 0.814198
vt 0.500000 0.767139
vt 0.620354 0.857697
vt 0.620354 0.814198
vt 0.500000 0.711949
vt 0.620351 0.917203
vt 0.532147 0.917203
vt 0.620354 0.975181
vt 0.704000 0.917203
vt 0.745262 0.857697
vt 0.378300 0.711949
vt 0.500000 0.627315
vt 0.500000 0.542375
vt 0.620354 0.711949
vt 0.620354 0.627315
vt 0.500000 0.450678
vt 0.620354 0.767139
vt 0.745262 0.711949
vt 0.745262 0.767139
vt 0.745262 0.814198
vt 0.745262 0.627315
vt 0.870179 0.767139
vt 0.870179 0.711949
vt 0.870179 0.814198
vt 0.870179 0.857697
vt 0.870165 0.917203
vt 0.788347 0.917203
vt 0.870179 0.975181
vt 0.956554 0.917203
vt 0.990524 0.857697
vt 0.990524 0.814198
vt 0.990524 0.767139
vt 0.990524 0.711949
vt 1.105497 0.814198
vt 1.105497 0.767139
vt 1.105497 0.857697
vt 1.105495 0.917203
vt 1.019025 0.917203
vt 1.105497 0.975181
vt 1.193197 0.917203
vt 1.222613 0.857697
vt 1.222613 0.814198
vt 1.222613 0.767139
vt 1.222613 0.711949
vt 1.105497 0.711949
vt 1.222613 0.627315
vt 0.990524 0.627315
vt 1.105497 0.627315
vt 1.222613 0.542375
vt 0.870179 0.627315
vt 0.990524 0.542375
vt 1.105497 0.542375
vt 1.222613 0.450678
vt 0.745262 0.542375
vt 0.870179 0.542375
vt 0.990524 0.450678
vt 1.105497 0.450678
vt 1.222683 0.361602
vt 1.105484 0.361584
vt 1.105497 0.279449
vt 0.990524 0.361565
vt 0.870179 0.450678
vt 0.745262 0.450678
vt 0.870179 0.361565
vt 0.870179 0.279449
vt 0.745262 0.361565
vt 0.620354 0.542375
vt 0.620354 0.450678
vt 0.620354 0.361565
vt 0.620354 0.279449
vt 0.500000 0.361565
vt 0.378300 0.450678
vt 0.378300 0.361565
vt 0.378300 0.279449
vt 0.609093 0.124368
vt 0.608501 0.232646
vt 0.949116 0.123699
vt 0.609093 0.016090
vt 0.496934 0.237538
vt 0.497230 0.009239
vt 0.385366 0.201131
vt 0.385366 0.049326
vt 0.315918 0.125500
vn 0.9950 0.0514 -0.0851
vn -0.0096 0.9828 0.1844
vn -0.7045 -0.5351 0.4663
vn 0.9950 0.0515 -0.0852
vn -0.0585 0.2558 -0.9649
vn -0.7045 -0.5350 0.4663
vn -0.0096 0.9828 0.1845
vn 0.9950 0.0515 -0.0851
vn -0.8180 0.2635 0.5114
vn 0.1561 -0.1451 -0.9770
vn -0.2737 -0.9496 0.1530
vn 0.0457 0.9737 -0.2233
vn 0.0884 0.9742 -0.2079
vn -0.1848 0.2545 0.9492
vn 0.7736 -0.1666 -0.6114
vn -0.0471 -0.9747 0.2184
vn 0.5533 0.3381 -0.7613
vn 0.4674 0.7007 -0.5390
vn 0.6069 0.4948 -0.6220
vn 0.4368 0.5541 -0.7087
vn 0.7890 -0.1568 -0.5941
vn 0.0966 -0.0303 -0.9949
vn 0.4822 -0.1450 -0.8640
vn 0.7458 -0.4662 -0.4759
vn 0.3675 -0.4811 -0.7959
vn 0.7896 -0.1883 -0.5840
vn -0.0772 -0.3149 -0.9460
vn 0.4674 -0.1950 -0.8623
vn 0.7903 -0.1696 -0.5888
vn 0.0855 -0.0486 -0.9952
vn 0.4537 -0.2323 -0.8603
vn 0.6523 -0.6757 -0.3434
vn 0.0996 -0.0250 -0.9947
vn 0.3072 -0.6048 -0.7347
vn 0.5016 -0.8471 -0.1755
vn -0.1989 -0.5059 -0.8393
vn 0.1227 -0.8553 -0.5034
vn 0.2303 -0.9702 0.0757
vn -0.3212 -0.6825 -0.6565
vn -0.0983 -0.9810 -0.1671
vn -0.0987 -0.9411 0.3234
vn -0.4483 -0.8348 -0.3197
vn -0.2265 -0.9724 0.0560
vn -0.4976 -0.6812 0.5370
vn -0.5134 -0.8565 0.0538
vn -0.7103 -0.3715 -0.5979
vn -0.7684 -0.5919 -0.2434
vn -0.7368 -0.6761 -0.0052
vn -0.8440 -0.4937 0.2098
vn -0.5456 -0.1097 -0.8308
vn -0.9580 -0.2806 -0.0584
vn -0.9403 -0.0088 -0.3403
vn -0.2710 0.1958 -0.9425
vn -0.8382 0.1891 -0.5115
vn -0.9493 0.3111 0.0457
vn -0.2417 0.2213 -0.9448
vn -0.7901 0.5884 -0.1719
vn -0.4172 0.5421 -0.7294
vn -0.4665 -0.0120 -0.8845
vn -0.4432 0.5280 -0.7244
vn -0.2254 0.2389 -0.9445
vn -0.6929 0.3518 -0.6294
vn 0.1591 0.5362 -0.8290
vn 0.4674 0.7007 -0.5391
vn 0.2749 0.7300 -0.6257
vn -0.4289 0.5376 -0.7260
vn -0.4102 0.8170 -0.4052
vn -0.7020 0.6684 -0.2459
vn -0.4453 0.8031 -0.3958
vn 0.0921 0.8506 -0.5177
vn 0.3110 0.8390 -0.4465
vn -0.2407 0.9684 -0.0659
vn -0.4816 0.8626 0.1547
vn -0.2660 0.9630 -0.0438
vn 0.0869 0.9799 0.1796
vn -0.1026 0.8740 0.4750
vn -0.2475 0.9671 -0.0591
vn 0.3283 0.9052 -0.2699
vn 0.4731 0.8047 -0.3586
vn 0.4446 0.8342 0.3261
vn -0.4794 0.7904 -0.3812
vn -0.6264 0.7142 0.3122
vn -0.7351 0.5001 0.4577
vn 0.0350 0.9629 0.2677
vn -0.1821 0.7917 0.5832
vn -0.7891 0.1381 0.5985
vn 0.0593 0.9699 0.2361
vn 0.4418 0.8261 0.3500
vn 0.4372 0.8220 0.3649
vn 0.3396 0.7079 0.6193
vn 0.2247 0.5444 0.8082
vn 0.7687 0.5541 0.3195
vn 0.7650 0.5363 0.3565
vn 0.7251 0.4039 0.5577
vn 0.7642 0.5875 0.2663
vn 0.6554 0.7311 -0.1894
vn 0.6184 0.6390 -0.4575
vn 0.9593 0.2752 0.0637
vn 0.9512 0.0459 0.3051
vn 0.9642 0.2473 0.0956
vn 0.9627 0.2565 0.0855
vn 0.9598 -0.2706 -0.0745
vn 0.9728 -0.0285 -0.2298
vn 0.9620 0.0218 -0.2721
vn 0.7647 0.4083 -0.4985
vn 0.6069 0.4947 -0.6220
vn 0.7457 -0.4662 -0.4760
vn 0.9755 -0.0644 -0.2105
vn 0.8640 -0.1506 0.4804
vn 0.9156 -0.4016 0.0207
vn 0.6708 0.2968 0.6796
vn 0.7065 -0.3392 0.6211
vn 0.7167 -0.6568 0.2344
vn 0.0889 0.3343 0.9383
vn 0.4780 0.0256 0.8780
vn 0.3991 -0.5515 0.7325
vn 0.3787 -0.8214 0.4264
vn 0.1357 -0.8511 0.5072
vn -0.0058 -0.6874 0.7262
vn 0.1866 -0.2733 0.9437
vn -0.1106 0.0027 0.9939
vn -0.0080 -0.4332 0.9013
vn -0.3080 -0.3438 0.8871
vn -0.3550 0.5095 0.7838
vn -0.4827 0.1159 0.8681
vn -0.5186 -0.1330 0.8446
vn -0.4975 -0.6812 0.5371
vn -0.7312 -0.2349 0.6405
vn -0.9606 -0.0431 0.2746
vn -0.8852 -0.2545 0.3894
vn -0.1479 -0.9708 0.1887
vn -0.1848 0.2545 0.9493
vn 0.0539 -0.9985 0.0025
vn -0.2231 -0.8829 0.4132
vn 0.1562 -0.1451 -0.9770
vn -0.8179 0.2635 0.5115
vn -0.2738 -0.9495 0.1530
usemtl it08_mat_OBON
s 1
f 3/1/1 2/2/2 1/3/3
f 6/4/2 5/5/4 4/6/5
f 9/7/6 8/8/7 7/9/5
f 9/7/6 7/9/5 10/10/8
f 13/11/9 12/12/10 11/13/11
f 14/14/12 12/12/10 13/11/9
f 14/14/12 13/11/9 15/15/13
f 14/14/12 15/15/13 16/16/14
f 17/17/15 14/14/12 16/16/14
f 18/18/16 17/17/15 16/16/14
f 21/19/17 20/20/18 19/21/19
f 21/19/17 22/22/20 20/20/18
f 21/19/17 19/21/19 23/23/21
f 24/24/22 22/22/20 21/19/17
f 25/25/23 21/19/17 23/23/21
f 25/25/23 24/24/22 21/19/17
f 25/25/23 23/23/21 26/26/24
f 27/27/25 25/25/23 26/26/24
f 27/27/25 26/26/24 28/28/26
f 29/29/27 24/24/22 25/25/23
f 27/27/25 29/29/27 25/25/23
f 30/30/28 27/27/25 28/28/26
f 30/30/28 28/28/26 31/31/29
f 32/32/30 29/29/27 27/27/25
f 30/30/28 32/32/30 27/27/25
f 33/33/31 30/30/28 31/31/29
f 33/33/31 31/31/29 34/34/32
f 35/35/33 32/32/30 30/30/28
f 33/33/31 35/35/33 30/30/28
f 36/36/34 33/33/31 34/34/32
f 36/36/34 34/34/32 37/37/35
f 38/38/36 35/35/33 33/33/31
f 36/36/34 38/38/36 33/33/31
f 39/39/37 36/36/34 37/37/35
f 39/39/37 37/37/35 40/40/38
f 41/41/39 38/38/36 36/36/34
f 39/39/37 41/41/39 36/36/34
f 42/42/40 39/39/37 40/40/38
f 42/42/40 40/40/38 43/43/41
f 44/44/42 41/41/39 39/39/37
f 42/42/40 44/44/42 39/39/37
f 45/45/43 42/42/40 43/43/41
f 45/45/43 43/43/41 46/46/44
f 45/45/43 46/46/44 47/47/45
f 45/45/43 47/47/45 42/42/40
f 47/47/45 44/44/42 42/42/40
f 48/48/46 41/41/39 44/44/42
f 49/49/47 44/44/42 47/47/45
f 49/49/47 48/48/46 44/44/42
f 50/50/48 49/49/47 47/47/45
f 50/50/48 47/47/45 51/51/44
f 50/50/48 51/51/44 52/52/49
f 50/50/48 52/52/49 49/49/47
f 48/48/46 53/53/50 41/41/39
f 53/53/50 38/38/36 41/41/39
f 49/49/47 54/54/51 48/48/46
f 52/52/49 54/54/51 49/49/47
f 48/48/46 55/55/52 53/53/50
f 54/54/51 55/55/52 48/48/46
f 53/53/50 56/56/53 38/38/36
f 56/56/53 35/35/33 38/38/36
f 32/32/30 35/35/33 56/56/53
f 55/55/52 57/57/54 53/53/50
f 53/53/50 57/57/54 56/56/53
f 58/58/55 55/55/52 54/54/51
f 59/59/56 32/32/30 56/56/53
f 60/60/57 57/57/54 55/55/52
f 58/58/55 60/60/57 55/55/52
f 57/57/54 61/61/58 56/56/53
f 59/59/56 62/62/59 32/32/30
f 62/62/59 29/29/27 32/32/30
f 59/59/56 56/56/53 63/63/60
f 59/59/56 63/63/60 62/62/59
f 56/56/53 61/61/58 63/63/60
f 62/62/59 64/64/61 29/29/27
f 64/64/61 24/24/22 29/29/27
f 63/63/60 65/65/62 62/62/59
f 62/62/59 65/65/62 64/64/61
f 64/64/61 66/66/63 24/24/22
f 66/66/63 67/67/20 24/24/22
f 66/66/63 68/68/64 67/67/20
f 66/66/63 69/69/65 68/68/64
f 70/70/66 69/69/65 66/66/63
f 64/64/61 70/70/66 66/66/63
f 65/65/62 70/70/66 64/64/61
f 71/71/67 70/70/66 65/65/62
f 72/72/68 65/65/62 63/63/60
f 72/72/68 71/71/67 65/65/62
f 73/73/69 72/72/68 63/63/60
f 73/73/69 63/63/60 61/61/58
f 71/71/67 74/74/70 70/70/66
f 74/74/70 75/75/65 70/70/66
f 74/74/70 76/76/64 75/75/65
f 74/74/70 77/77/71 76/76/64
f 78/78/72 77/77/71 74/74/70
f 71/71/67 78/78/72 74/74/70
f 72/72/68 79/79/73 71/71/67
f 79/79/73 78/78/72 71/71/67
f 80/80/74 79/79/73 72/72/68
f 73/73/69 80/80/74 72/72/68
f 81/81/75 78/78/72 79/79/73
f 82/82/76 79/79/73 80/80/74
f 82/82/76 81/81/75 79/79/73
f 83/83/77 80/80/74 73/73/69
f 81/81/75 84/84/78 78/78/72
f 84/84/78 85/85/71 78/78/72
f 84/84/78 86/86/64 85/85/71
f 84/84/78 87/87/79 86/86/64
f 88/88/80 87/87/79 84/84/78
f 81/81/75 88/88/80 84/84/78
f 89/89/81 73/73/69 61/61/58
f 89/89/81 83/83/77 73/73/69
f 89/89/81 61/61/58 57/57/54
f 60/60/57 89/89/81 57/57/54
f 60/60/57 90/90/82 89/89/81
f 90/90/82 83/83/77 89/89/81
f 91/91/83 90/90/82 60/60/57
f 58/58/55 91/91/83 60/60/57
f 92/92/84 83/83/77 90/90/82
f 93/93/85 90/90/82 91/91/83
f 93/93/85 92/92/84 90/90/82
f 94/94/86 91/91/83 58/58/55
f 92/92/84 95/95/87 83/83/77
f 95/95/87 80/80/74 83/83/77
f 95/95/87 82/82/76 80/80/74
f 92/92/84 96/96/88 95/95/87
f 95/95/87 97/97/89 82/82/76
f 96/96/88 97/97/89 95/95/87
f 97/97/89 98/98/90 82/82/76
f 82/82/76 98/98/90 81/81/75
f 98/98/90 88/88/80 81/81/75
f 99/99/91 96/96/88 92/92/84
f 93/93/85 99/99/91 92/92/84
f 100/100/92 97/97/89 96/96/88
f 101/101/93 96/96/88 99/99/91
f 101/101/93 100/100/92 96/96/88
f 102/102/94 98/98/90 97/97/89
f 100/100/92 102/102/94 97/97/89
f 103/103/95 88/88/80 98/98/90
f 102/102/94 103/103/95 98/98/90
f 103/103/95 104/104/96 88/88/80
f 104/104/96 105/105/79 88/88/80
f 104/104/96 106/106/18 105/105/79
f 104/104/96 107/107/97 106/106/18
f 108/108/98 107/107/97 104/104/96
f 103/103/95 108/108/98 104/104/96
f 102/102/94 109/109/99 103/103/95
f 109/109/99 108/108/98 103/103/95
f 100/100/92 110/110/100 102/102/94
f 110/110/100 109/109/99 102/102/94
f 111/111/101 110/110/100 100/100/92
f 101/101/93 111/111/101 100/100/92
f 112/112/102 109/109/99 110/110/100
f 113/113/103 110/110/100 111/111/101
f 113/113/103 112/112/102 110/110/100
f 114/114/104 108/108/98 109/109/99
f 112/112/102 114/114/104 109/109/99
f 114/114/104 115/115/105 108/108/98
f 115/115/105 116/116/97 108/108/98
f 115/115/105 117/117/64 116/116/97
f 115/115/105 118/118/106 117/117/64
f 119/119/21 118/118/106 115/115/105
f 114/114/104 119/119/21 115/115/105
f 120/120/107 119/119/21 114/114/104
f 112/112/102 120/120/107 114/114/104
f 121/121/26 120/120/107 112/112/102
f 113/113/103 121/121/26 112/112/102
f 122/122/29 121/121/26 113/113/103
f 123/123/108 122/122/29 113/113/103
f 123/123/108 113/113/103 111/111/101
f 124/124/32 122/122/29 123/123/108
f 123/123/108 111/111/101 125/125/109
f 125/125/109 111/111/101 101/101/93
f 126/126/110 124/124/32 123/123/108
f 126/126/110 123/123/108 125/125/109
f 127/127/35 124/124/32 126/126/110
f 128/128/111 125/125/109 101/101/93
f 128/128/111 101/101/93 99/99/91
f 126/126/110 125/125/109 129/129/112
f 129/129/112 125/125/109 128/128/111
f 130/130/113 127/127/35 126/126/110
f 130/130/113 126/126/110 129/129/112
f 131/131/38 127/127/35 130/130/113
f 128/128/111 99/99/91 132/132/114
f 132/132/114 99/99/91 93/93/85
f 133/133/115 129/129/112 128/128/111
f 133/133/115 128/128/111 132/132/114
f 130/130/113 129/129/112 134/134/116
f 134/134/116 129/129/112 133/133/115
f 135/135/117 131/131/38 130/130/113
f 135/135/117 130/130/113 134/134/116
f 136/136/41 131/131/38 135/135/117
f 137/137/118 136/136/41 135/135/117
f 137/137/118 138/138/44 136/136/41
f 137/137/118 139/139/119 138/138/44
f 137/137/118 135/135/117 139/139/119
f 135/135/117 134/134/116 139/139/119
f 140/140/120 134/134/116 133/133/115
f 139/139/119 134/134/116 140/140/120
f 133/133/115 132/132/114 141/141/121
f 140/140/120 133/133/115 141/141/121
f 142/142/122 139/139/119 140/140/120
f 142/142/122 143/143/44 139/139/119
f 142/142/122 144/144/123 143/143/44
f 142/142/122 140/140/120 144/144/123
f 140/140/120 141/141/121 144/144/123
f 141/141/121 132/132/114 145/145/124
f 145/145/124 132/132/114 93/93/85
f 145/145/124 93/93/85 91/91/83
f 145/145/124 91/91/83 94/94/86
f 146/146/125 141/141/121 145/145/124
f 146/146/125 145/145/124 94/94/86
f 144/144/123 141/141/121 146/146/125
f 147/147/126 144/144/123 146/146/125
f 147/147/126 148/148/127 144/144/123
f 147/147/126 149/149/128 148/148/127
f 147/147/126 146/146/125 149/149/128
f 146/146/125 94/94/86 149/149/128
f 149/149/128 94/94/86 150/150/129
f 150/150/129 94/94/86 58/58/55
f 150/150/129 58/58/55 54/54/51
f 150/150/129 54/54/51 52/52/49
f 151/151/130 149/149/128 150/150/129
f 151/151/130 150/150/129 52/52/49
f 151/151/130 152/152/44 149/149/128
f 151/151/130 52/52/49 152/152/44
f 155/153/131 154/154/15 153/155/16
f 156/156/132 155/153/131 153/155/16
f 155/153/131 157/157/133 154/154/15
f 156/156/132 158/158/134 155/153/131
f 155/153/131 159/159/135 157/157/133
f 158/158/134 160/160/136 155/153/131
f 161/161/137 159/159/135 155/153/131
f 161/161/137 155/153/131 160/160/136
