# Blender v2.93.6 OBJ File: ''
# www.blender.org
mtllib Kurabo.mtl
o kurabo
v 1.006324 1.655930 -0.698450
v 1.198824 1.799541 -0.611778
v 1.028659 1.816790 -0.559444
v 1.366335 1.556463 1.004675
v 1.540904 1.442765 0.889928
v 1.401057 1.361589 1.044922
v 0.968675 1.201930 0.463553
v 1.084784 1.253039 0.643732
v 1.253944 1.292705 0.564951
v 0.592657 1.334616 0.915860
v 0.735929 1.121102 0.900280
v 0.614335 1.166593 0.745456
v 0.745173 1.279031 0.144510
v 0.993807 1.354988 0.092173
v 0.998572 1.428005 -0.124316
v 0.741701 1.347020 -0.080011
v 1.021999 1.616796 -0.041889
v 0.712504 1.533042 0.074530
v 0.993807 1.354988 0.092173
v 0.745173 1.279031 0.144510
v 1.084784 1.253039 0.643732
v 1.341091 1.343510 0.713366
v 1.253944 1.292705 0.564951
v 1.189222 1.292623 0.830499
v 1.540904 1.442765 0.889928
v 1.401057 1.361589 1.044922
v 1.084784 1.253039 0.643732
v 0.866872 1.380889 0.758957
v 1.011208 1.406403 0.625205
v 0.965219 1.206147 0.765362
v 0.592657 1.334616 0.915860
v 0.735929 1.121102 0.900280
v 0.312818 1.400896 0.451059
v -0.092762 1.701159 0.512778
v 0.196086 1.844787 0.224826
v 0.323519 1.656041 0.108597
v 0.264903 2.035831 -0.105865
v 0.187766 1.096858 0.026290
v 0.377691 1.854485 -0.229237
v 0.237175 2.114716 -0.530158
v 0.111587 1.749737 -0.005286
v -0.223226 1.204666 -0.123448
v -0.459986 1.534355 0.123873
v -0.092762 1.701159 0.512778
v 0.196086 1.844787 0.224826
v 0.264903 2.035831 -0.105865
v 0.172180 1.883793 -0.228223
v 0.344672 1.933650 -0.644224
v -0.006697 2.057505 -0.914326
v 0.155515 1.902676 -0.524109
v 0.237175 2.114716 -0.530158
v 0.150366 1.860390 -1.020047
v 0.031160 1.830305 -0.774827
v -0.006697 2.057505 -0.914326
v -0.287546 1.871186 -1.156290
v -0.184043 1.659663 -1.050315
v -0.559395 1.716884 -1.174940
v -0.150945 1.690809 -1.305488
v -0.287546 1.871186 -1.156290
v -0.375978 1.524447 -1.109778
v -0.729860 1.496651 -1.115690
v -0.447705 1.556884 -1.377064
v -0.559395 1.716884 -1.174940
v -0.729860 1.496651 -1.115690
v -0.616776 1.334553 -1.331601
v -0.809713 1.237456 -0.960936
v -0.494942 1.397867 -1.109625
v -0.516981 1.243808 -1.021215
v -0.809713 1.237456 -0.960936
v -0.754008 1.049619 -0.791048
v -0.695064 1.073002 -1.192325
v -0.487861 1.113678 -0.863475
v -0.587287 0.912723 -0.624235
v -0.609052 0.898381 -0.994842
v -0.754008 1.049619 -0.791048
v -0.360081 1.056680 -0.706270
v -0.134923 1.011327 -0.229917
v -0.394030 0.791628 -0.794796
v -0.587287 0.912723 -0.624235
v -0.043830 1.184037 -0.366783
v -0.000584 0.936744 -0.433779
v -0.134923 1.011327 -0.229917
v 0.378919 1.225635 0.052701
v 0.391783 1.468896 -0.007742
v 0.378919 1.225635 0.052701
v 0.745173 1.279031 0.144510
v 0.712504 1.533042 0.074530
v 0.397267 1.288348 -0.182331
v 0.741701 1.347020 -0.080011
v 0.745173 1.279031 0.144510
v 1.341091 1.343510 0.713366
v 1.540904 1.442765 0.889928
v 1.366335 1.556463 1.004675
v 1.133638 1.463160 0.811601
v 1.401057 1.361589 1.044922
v 1.253944 1.292705 0.564951
v 1.189222 1.292623 0.830499
v 1.011208 1.406403 0.625205
v 1.084784 1.253039 0.643732
v 1.257684 1.349572 0.392342
v 1.028659 1.816790 -0.559444
v 1.198824 1.799541 -0.611778
v 1.021999 1.616796 -0.041889
v 0.998572 1.428005 -0.124316
v 1.006324 1.655930 -0.698450
v 1.198824 1.799541 -0.611778
v 1.257684 1.349572 0.392342
v 0.993807 1.354988 0.092173
v 1.039605 1.463270 0.335796
v 1.017776 1.270239 0.313787
v 0.968675 1.201930 0.463553
v 1.253944 1.292705 0.564951
v 0.965219 1.206147 0.765362
v 1.084784 1.253039 0.643732
v 0.847161 1.189371 0.594194
v 0.735929 1.121102 0.900280
v 0.866872 1.380889 0.758957
v 0.614335 1.166593 0.745456
v 0.592657 1.334616 0.915860
v -0.228493 0.128223 0.742464
v -0.597961 0.382621 1.115213
v -0.017979 0.388426 1.176482
v -0.000394 0.143475 0.476249
v 0.299199 0.513781 1.093919
v 0.190928 0.303061 0.222215
v -0.597961 0.382621 1.115213
v -0.307469 0.779785 1.428330
v 0.530404 0.722662 0.922108
v 0.297124 0.522435 0.053818
v -0.112788 1.070741 1.452335
v -0.597961 0.382621 1.115213
v -0.807477 0.910942 1.246160
v 0.627698 0.931034 0.735362
v 0.303427 0.881583 -0.028665
v 0.063572 1.353764 1.328236
v 0.551337 1.188006 0.482449
v 0.124214 1.619380 0.023468
v -0.824369 1.257395 1.193081
v 0.173106 1.545589 1.130839
v -0.597961 0.382621 1.115213
v -1.017994 0.650739 0.812141
v 0.210422 1.648883 0.779033
v 0.124214 1.619380 0.023468
v -0.597961 0.382621 1.115213
v -0.728501 0.259380 0.560293
v -0.612058 1.751545 0.844777
v -1.123962 0.887089 0.575410
v -0.378403 1.803337 0.564503
v 0.124214 1.619380 0.023468
v -0.597961 0.382621 1.115213
v -0.228493 0.128223 0.742464
v -0.711975 0.330129 0.216995
v -0.000394 0.143475 0.476249
v -0.742732 1.565266 1.034470
v -1.082206 1.145665 0.334576
v -0.942629 1.342946 0.163233
v -0.615376 0.514562 -0.071553
v 0.190928 0.303061 0.222215
v -0.626311 1.496914 0.053390
v 0.124214 1.619380 0.023468
v -0.488039 0.728391 -0.232246
v 0.297124 0.522435 0.053818
v -0.285396 1.036037 -0.243194
v 0.124214 1.619380 0.023468
v 0.303427 0.881583 -0.028665
v 0.124214 1.619380 0.023468
vt 0.285546 0.174137
vt 0.410255 0.133986
vt 0.383483 0.262640
vt 0.329266 0.116164
vt 0.444997 0.198080
vt 0.315854 0.238479
vt 0.823771 0.252153
vt 0.846789 0.252153
vt 0.870486 0.252153
vt 0.082028 0.161341
vt 0.217343 0.116040
vt 0.193479 0.247286
vt 0.677878 0.166765
vt 0.616033 0.166765
vt 0.616033 0.073587
vt 0.677878 0.032634
vt 0.733595 0.166765
vt 0.733595 0.032634
vt 0.790438 0.166765
vt 0.790438 0.073587
vt 0.823771 0.252153
vt 0.823771 0.149274
vt 0.846789 0.252153
vt 0.846789 0.149274
vt 0.823771 0.031202
vt 0.846789 0.031201
vt 0.926194 0.252152
vt 0.926193 0.149274
vt 0.870486 0.252153
vt 0.870486 0.149274
vt 0.926193 0.031204
vt 0.870486 0.031203
vt 0.616033 0.869903
vt 0.594718 0.973486
vt 0.643067 0.973486
vt 0.677878 0.869905
vt 0.616033 0.812619
vt 0.692757 0.973487
vt 0.677878 0.812619
vt 0.616033 0.747339
vt 0.733595 0.869908
vt 0.733595 0.973487
vt 0.771365 0.973486
vt 0.790438 0.869903
vt 0.815820 0.973486
vt 0.790438 0.812619
vt 0.733595 0.812619
vt 0.677878 0.747339
vt 0.616033 0.688660
vt 0.733595 0.747339
vt 0.790438 0.747339
vt 0.677878 0.688661
vt 0.733595 0.688661
vt 0.790438 0.688660
vt 0.790438 0.619519
vt 0.733595 0.619519
vt 0.790438 0.555064
vt 0.677878 0.619519
vt 0.616033 0.619519
vt 0.733595 0.555064
vt 0.790438 0.493254
vt 0.677878 0.555064
vt 0.616033 0.555064
vt 0.616033 0.493254
vt 0.677878 0.493254
vt 0.616033 0.422989
vt 0.733595 0.493254
vt 0.733595 0.422994
vt 0.790438 0.422989
vt 0.790438 0.361230
vt 0.677878 0.422994
vt 0.733595 0.361231
vt 0.790438 0.305591
vt 0.677878 0.361231
vt 0.616033 0.361230
vt 0.733595 0.305591
vt 0.790438 0.233786
vt 0.677878 0.305591
vt 0.616033 0.305591
vt 0.733595 0.233786
vt 0.677878 0.233786
vt 0.616033 0.233786
vt 0.616033 0.166765
vt 0.733595 0.166765
vt 0.790438 0.166765
vt 0.790438 0.073587
vt 0.733595 0.032634
vt 0.677878 0.166765
vt 0.677878 0.032634
vt 0.616033 0.073587
vt 0.926194 0.031204
vt 0.974389 0.031204
vt 0.974389 0.149274
vt 0.926194 0.149274
vt 0.870486 0.031203
vt 0.974389 0.252152
vt 0.870486 0.149274
vt 0.926194 0.252152
vt 0.870486 0.252153
vt 0.974389 0.336287
vt 0.974389 0.982269
vt 0.926194 0.982269
vt 0.926193 0.630223
vt 0.870486 0.673304
vt 0.870486 0.982269
vt 0.823771 0.982269
vt 0.823771 0.336287
vt 0.870486 0.570680
vt 0.926194 0.336287
vt 0.870486 0.336287
vt 0.870486 0.252153
vt 0.823771 0.252153
vt 0.846789 0.252153
vt 0.846789 0.149274
vt 0.870486 0.149274
vt 0.846789 0.031201
vt 0.926193 0.149274
vt 0.870486 0.031203
vt 0.926193 0.031204
vt 0.469451 0.566811
vt 0.514939 0.477318
vt 0.560427 0.566811
vt 0.560427 0.633499
vt 0.469451 0.633499
vt 0.560427 0.719685
vt 0.378475 0.566811
vt 0.423963 0.477318
vt 0.469451 0.719685
vt 0.560427 0.795626
vt 0.378475 0.633499
vt 0.287499 0.566811
vt 0.332987 0.477318
vt 0.469451 0.795626
vt 0.560427 0.872558
vt 0.378475 0.719685
vt 0.514939 0.962051
vt 0.469451 0.872558
vt 0.287499 0.633499
vt 0.378475 0.795626
vt 0.196522 0.566811
vt 0.242010 0.477318
vt 0.423963 0.962051
vt 0.378475 0.872558
vt 0.105546 0.566811
vt 0.151034 0.477318
vt 0.287499 0.795626
vt 0.196522 0.633499
vt 0.332987 0.962051
vt 0.287499 0.872558
vt 0.014570 0.566811
vt 0.060058 0.477318
vt 0.105546 0.633499
vt 0.014570 0.633499
vt 0.287499 0.719685
vt 0.196522 0.719685
vt 0.196522 0.795626
vt 0.105546 0.719685
vt 0.014570 0.719685
vt 0.196522 0.872558
vt 0.242010 0.962051
vt 0.105546 0.795626
vt 0.014570 0.795626
vt 0.105546 0.872558
vt 0.151034 0.962051
vt 0.014570 0.872558
vt 0.060058 0.962051
vn -0.5817 0.8133 0.0094
vn 0.8610 0.3071 0.4055
vn -0.1605 -0.8723 -0.4618
vn -0.0475 -0.7248 0.6873
vn 0.7535 0.1479 -0.6406
vn -0.2659 0.9584 0.1034
vn 0.9504 -0.1919 -0.2449
vn 0.2382 -0.9381 0.2513
vn -0.3800 -0.8211 -0.4260
vn -0.6338 -0.1076 -0.7659
vn 0.3448 -0.5604 0.7530
vn -0.3234 0.9078 0.2669
vn 0.2916 -0.8147 -0.5012
vn 0.4455 -0.8717 -0.2040
vn 0.1150 -0.5421 0.8324
vn 0.1160 -0.3445 -0.9316
vn -0.0689 0.9349 0.3482
vn -0.1760 0.8866 0.4278
vn 0.1151 -0.5421 0.8324
vn 0.6898 0.0882 -0.7186
vn -0.3076 -0.7765 0.5499
vn -0.2952 0.9546 0.0402
vn -0.0916 0.9802 0.1755
vn 0.5762 -0.5083 0.6400
vn -0.3234 0.9078 0.2670
vn 0.3406 0.8758 0.3421
vn -0.1230 0.9318 0.3414
vn 0.9595 0.1147 0.2574
vn 0.9842 0.0423 -0.1719
vn 0.3129 0.8828 0.3505
vn 0.6198 -0.0766 -0.7810
vn 0.9773 -0.2044 -0.0552
vn 0.3082 0.9377 0.1603
vn -0.6705 0.0958 -0.7357
vn 0.0123 0.2046 -0.9788
vn -0.4188 0.6605 -0.6232
vn -0.9135 -0.3604 -0.1889
vn 0.9569 0.0331 -0.2885
vn -0.2196 0.9478 -0.2312
vn -0.8405 -0.5237 0.1386
vn 0.3082 0.9377 0.1602
vn 0.6828 0.0615 -0.7280
vn -0.2876 -0.6931 0.6610
vn -0.2195 0.9478 -0.2312
vn -0.4031 0.8938 -0.1967
vn -0.0028 -0.7336 0.6796
vn -0.7068 0.6777 -0.2029
vn 0.4922 -0.0369 -0.8697
vn -0.4031 0.8938 -0.1966
vn 0.5101 -0.5222 0.6835
vn -0.8803 0.4731 0.0353
vn -0.1020 0.0180 -0.9946
vn -0.8803 0.4731 0.0354
vn -0.3564 -0.1870 -0.9154
vn -0.9796 0.1331 0.1507
vn 0.8063 -0.1910 0.5598
vn 0.9301 0.2176 0.2958
vn -0.9796 0.1331 0.1508
vn -0.8642 -0.1116 0.4907
vn -0.4513 -0.4952 -0.7424
vn 0.7522 0.6584 0.0241
vn -0.5564 -0.4229 0.7152
vn -0.1479 -0.8371 -0.5268
vn 0.2093 0.8869 -0.4119
vn -0.4100 -0.4033 0.8181
vn 0.1601 -0.9837 -0.0823
vn -0.5565 -0.4228 0.7153
vn -0.2717 0.9421 -0.1967
vn 0.5731 -0.7642 -0.2959
vn -0.6306 0.1273 0.7656
vn -0.1488 0.9403 -0.3062
vn -0.6307 0.1273 0.7656
vn -0.1760 0.8866 0.4279
vn 0.5159 -0.8390 -0.1730
vn 0.7535 0.1479 -0.6405
vn -0.4799 0.8764 0.0400
vn -0.0476 -0.7248 0.6873
vn 0.8856 0.2145 0.4119
vn 0.8609 0.3072 0.4056
vn -0.5817 0.8134 0.0095
vn -0.1605 -0.8723 -0.4619
vn 0.8609 0.3072 0.4055
vn 0.4455 -0.8718 -0.2040
vn -0.6396 0.7687 -0.0006
vn -0.1417 -0.8896 -0.4342
vn -0.3799 -0.8211 -0.4261
vn 0.9503 -0.1920 -0.2450
vn -0.4856 -0.2933 -0.8235
vn -0.0915 0.9802 0.1755
vn -0.6339 -0.1076 -0.7659
vn -0.3233 0.9078 0.2670
vn 0.5521 -0.5718 0.6068
vn -0.4010 -0.6868 0.6063
vn 0.2286 -0.9716 -0.0602
vn 0.3017 -0.9414 -0.1507
vn 0.6477 -0.5138 0.5627
vn 0.5032 -0.7540 -0.4223
vn 0.1073 0.0296 0.9938
vn -0.4010 -0.6868 0.6062
vn 0.8866 -0.2801 0.3682
vn 0.6293 -0.4544 -0.6304
vn 0.1719 0.1295 0.9766
vn -0.6611 0.2311 0.7138
vn -0.4011 -0.6868 0.6062
vn 0.9929 -0.0050 0.1191
vn 0.6573 -0.2824 -0.6987
vn 0.3593 0.4327 0.8268
vn 0.4010 0.6868 -0.6062
vn 0.9914 0.1306 -0.0098
vn -0.6499 0.3450 0.6772
vn 0.4929 0.6708 0.5541
vn -0.9845 -0.1687 0.0469
vn 0.5319 0.7517 0.3898
vn -0.5398 -0.7700 -0.3401
vn -0.3706 0.8974 0.2395
vn -0.9959 -0.0826 -0.0362
vn 0.4010 0.6868 -0.6063
vn -0.2616 0.9599 0.1008
vn 0.2286 -0.9717 -0.0602
vn -0.5201 -0.7259 -0.4501
vn -0.5513 0.6715 0.4951
vn -0.9347 0.1976 -0.2954
vn -0.7343 0.4480 -0.5101
vn -0.4075 -0.5151 -0.7541
vn -0.5958 0.5469 -0.5881
vn -0.2343 -0.2280 -0.9451
vn 0.6293 -0.4544 -0.6305
vn -0.1363 -0.0742 -0.9879
vn 0.4011 0.6868 -0.6062
usemtl it04_mat_KURABO
s 1
f 3/1/1 2/2/2 1/3/3
f 6/4/4 5/5/5 4/6/6
f 9/7/7 8/8/8 7/9/9
f 12/10/10 11/11/11 10/12/12
f 15/13/13 14/14/14 13/15/15
f 16/16/16 15/13/13 13/15/15
f 17/17/17 15/13/13 16/16/16
f 18/18/18 17/17/17 16/16/16
f 19/19/14 17/17/17 18/18/18
f 20/20/19 19/19/14 18/18/18
f 23/21/7 22/22/20 21/23/8
f 22/22/20 24/24/21 21/23/8
f 22/22/20 25/25/5 24/24/21
f 25/25/5 26/26/4 24/24/21
f 29/27/22 28/28/23 27/29/8
f 28/28/23 30/30/24 27/29/8
f 28/28/23 31/31/25 30/30/24
f 31/31/25 32/32/11 30/30/24
f 35/33/26 34/34/27 33/35/28
f 35/33/26 33/35/28 36/36/29
f 35/33/26 36/36/29 37/37/30
f 33/35/28 38/38/31 36/36/29
f 36/36/29 39/39/32 37/37/30
f 37/37/30 39/39/32 40/40/33
f 38/38/31 41/41/34 36/36/29
f 36/36/29 41/41/34 39/39/32
f 38/38/31 42/42/35 41/41/34
f 41/41/34 42/42/35 43/43/36
f 45/44/26 43/43/36 44/45/27
f 45/44/26 41/41/34 43/43/36
f 41/41/34 45/44/26 46/46/30
f 41/41/34 47/47/37 39/39/32
f 47/47/37 41/41/34 46/46/30
f 39/39/32 48/48/38 40/40/33
f 39/39/32 47/47/37 48/48/38
f 40/40/33 48/48/38 49/49/39
f 47/47/37 46/46/30 50/50/40
f 47/47/37 50/50/40 48/48/38
f 46/46/30 51/51/41 50/50/40
f 48/48/38 52/52/42 49/49/39
f 48/48/38 50/50/40 52/52/42
f 50/50/40 51/51/41 53/53/43
f 50/50/40 53/53/43 52/52/42
f 51/51/41 54/54/44 53/53/43
f 53/53/43 54/54/44 55/55/45
f 56/56/46 53/53/43 55/55/45
f 52/52/42 53/53/43 56/56/46
f 56/56/46 55/55/45 57/57/47
f 49/49/39 52/52/42 58/58/48
f 58/58/48 52/52/42 56/56/46
f 59/59/49 49/49/39 58/58/48
f 60/60/50 56/56/46 57/57/47
f 58/58/48 56/56/46 60/60/50
f 60/60/50 57/57/47 61/61/51
f 59/59/49 58/58/48 62/62/52
f 62/62/52 58/58/48 60/60/50
f 63/63/47 59/59/49 62/62/52
f 63/63/47 62/62/52 64/64/53
f 62/62/52 65/65/54 64/64/53
f 62/62/52 60/60/50 65/65/54
f 64/64/53 65/65/54 66/66/55
f 67/67/56 60/60/50 61/61/51
f 60/60/50 67/67/56 65/65/54
f 67/67/56 61/61/51 68/68/57
f 61/61/51 69/69/58 68/68/57
f 68/68/57 69/69/58 70/70/59
f 65/65/54 67/67/56 71/71/60
f 67/67/56 68/68/57 71/71/60
f 65/65/54 71/71/60 66/66/55
f 72/72/61 68/68/57 70/70/59
f 71/71/60 68/68/57 72/72/61
f 72/72/61 70/70/59 73/73/62
f 66/66/55 71/71/60 74/74/63
f 74/74/63 71/71/60 72/72/61
f 75/75/59 66/66/55 74/74/63
f 76/76/64 72/72/61 73/73/62
f 74/74/63 72/72/61 76/76/64
f 76/76/64 73/73/62 77/77/65
f 75/75/59 74/74/63 78/78/66
f 78/78/66 74/74/63 76/76/64
f 79/79/67 75/75/59 78/78/66
f 80/80/68 76/76/64 77/77/65
f 79/79/67 78/78/66 81/81/69
f 78/78/66 76/76/64 81/81/69
f 76/76/64 80/80/68 81/81/69
f 82/82/65 79/79/67 81/81/69
f 82/82/65 81/81/69 83/83/70
f 80/80/68 77/77/65 84/84/71
f 77/77/65 85/85/72 84/84/71
f 85/85/72 86/86/19 84/84/71
f 86/86/19 87/87/73 84/84/71
f 81/81/69 80/80/68 88/88/74
f 80/80/68 84/84/71 88/88/74
f 84/84/71 87/87/73 88/88/74
f 81/81/69 88/88/74 83/83/70
f 87/87/73 89/89/16 88/88/74
f 88/88/74 89/89/16 83/83/70
f 89/89/16 90/90/19 83/83/70
f 93/91/6 92/92/75 91/93/20
f 94/94/76 93/91/6 91/93/20
f 95/95/77 93/91/6 94/94/76
f 94/94/76 91/93/20 96/96/7
f 97/97/21 95/95/77 94/94/76
f 98/98/22 94/94/76 96/96/7
f 97/97/21 94/94/76 98/98/22
f 99/99/8 97/97/21 98/98/22
f 98/98/22 96/96/7 100/100/78
f 100/100/78 102/101/79 101/102/80
f 101/102/80 103/103/17 100/100/78
f 103/103/17 101/102/80 104/104/13
f 101/102/80 105/105/81 104/104/13
f 104/104/13 105/105/81 106/106/82
f 106/106/82 107/107/78 104/104/13
f 107/107/78 108/108/83 104/104/13
f 103/103/17 109/109/84 100/100/78
f 103/103/17 108/108/83 109/109/84
f 109/109/84 98/98/22 100/100/78
f 107/107/78 110/110/85 108/108/83
f 108/108/83 110/110/85 109/109/84
f 111/111/86 110/110/85 107/107/78
f 110/110/85 111/111/86 109/109/84
f 107/107/78 112/112/87 111/111/86
f 111/111/86 98/98/22 109/109/84
f 114/113/8 113/114/24 111/111/86
f 111/111/86 115/115/88 98/98/22
f 113/114/24 115/115/88 111/111/86
f 113/114/24 116/116/11 115/115/88
f 115/115/88 117/117/89 98/98/22
f 116/116/11 118/118/90 115/115/88
f 115/115/88 118/118/90 117/117/89
f 118/118/90 119/119/91 117/117/89
f 122/120/92 121/121/93 120/122/94
f 120/122/94 123/123/95 122/120/92
f 123/123/95 124/124/96 122/120/92
f 123/123/95 125/125/97 124/124/96
f 127/126/98 126/127/99 122/120/92
f 122/120/92 124/124/96 127/126/98
f 125/125/97 128/128/100 124/124/96
f 125/125/97 129/129/101 128/128/100
f 124/124/96 130/130/102 127/126/98
f 124/124/96 128/128/100 130/130/102
f 132/131/103 131/132/104 127/126/98
f 127/126/98 130/130/102 132/131/103
f 129/129/101 133/133/105 128/128/100
f 129/129/101 134/134/106 133/133/105
f 128/128/100 135/135/107 130/130/102
f 128/128/100 133/133/105 135/135/107
f 134/134/106 137/136/108 136/137/109
f 134/134/106 136/137/109 133/133/105
f 130/130/102 135/135/107 138/138/110
f 130/130/102 138/138/110 132/131/103
f 133/133/105 139/139/111 135/135/107
f 133/133/105 136/137/109 139/139/111
f 141/140/112 140/141/99 132/131/103
f 132/131/103 138/138/110 141/140/112
f 136/137/109 143/142/108 142/143/113
f 136/137/109 142/143/113 139/139/111
f 145/144/114 144/145/99 141/140/112
f 139/139/111 142/143/113 146/146/115
f 138/138/110 147/147/116 141/140/112
f 141/140/112 147/147/116 145/144/114
f 142/143/113 149/148/117 148/149/118
f 142/143/113 148/149/118 146/146/115
f 151/150/119 150/151/99 145/144/114
f 145/144/114 152/152/120 151/150/119
f 147/147/116 152/152/120 145/144/114
f 152/152/120 153/153/95 151/150/119
f 138/138/110 154/154/121 147/147/116
f 135/135/107 154/154/121 138/138/110
f 135/135/107 139/139/111 154/154/121
f 139/139/111 146/146/115 154/154/121
f 154/154/121 155/155/122 147/147/116
f 154/154/121 146/146/115 155/155/122
f 147/147/116 155/155/122 152/152/120
f 146/146/115 156/156/123 155/155/122
f 146/146/115 148/149/118 156/156/123
f 155/155/122 157/157/124 152/152/120
f 155/155/122 156/156/123 157/157/124
f 152/152/120 157/157/124 153/153/95
f 157/157/124 158/158/97 153/153/95
f 148/149/118 159/159/125 156/156/123
f 148/149/118 160/160/108 159/159/125
f 156/156/123 161/161/126 157/157/124
f 157/157/124 161/161/126 158/158/97
f 156/156/123 159/159/125 161/161/126
f 161/161/126 162/162/127 158/158/97
f 159/159/125 163/163/128 161/161/126
f 161/161/126 163/163/128 162/162/127
f 159/159/125 164/164/108 163/163/128
f 163/163/128 165/165/106 162/162/127
f 163/163/128 166/166/129 165/165/106
