# Blender v2.93.6 OBJ File: ''
# www.blender.org
mtllib Momon.mtl
o momon
v -0.087220 0.165551 0.451853
v -0.407460 0.100634 -0.042058
v 0.056125 0.180355 0.002656
v -0.655801 0.134219 0.056301
v -0.318854 0.170490 0.614397
v -0.868448 0.096720 0.239313
v -0.579182 0.144073 0.672064
v -0.935045 0.095463 0.384536
v -0.762030 0.126998 0.650480
v -0.973260 0.102065 0.579328
v 0.391166 0.105241 -0.081695
v 0.129598 0.132334 0.430739
v -0.084919 0.180355 0.002656
v 0.334215 0.127646 0.592874
v 0.641941 0.163097 0.034938
v 0.593043 0.090996 0.683429
v 0.817975 0.137277 0.227108
v 0.743999 0.090034 0.676400
v 0.893569 0.120323 0.384850
v 0.932059 0.096220 0.605982
v 0.270262 1.142650 -0.185958
v 0.323175 1.190605 -0.041824
v 0.007633 1.335207 -0.097625
v 0.473801 1.083995 -0.009457
v 0.157318 1.103529 -0.296883
v 0.395391 1.011393 -0.223106
v 0.582484 0.974371 0.025313
v 0.228517 0.955221 -0.386658
v 0.485590 0.883510 -0.238742
v 0.671395 0.803740 0.081813
v -0.001481 1.095856 -0.325152
v 0.007633 1.335207 -0.097625
v -0.159013 1.108761 -0.289289
v 0.559269 0.697323 -0.224089
v 0.720552 0.660816 0.129853
v 0.279748 0.815436 -0.440233
v 0.599917 0.545399 -0.199507
v 0.719902 0.521610 0.177850
v 0.321314 0.619949 -0.456544
v -0.006484 0.942190 -0.428956
v -0.010411 0.798099 -0.492806
v -0.239297 0.962958 -0.375427
v -0.014303 0.598554 -0.517888
v -0.264539 1.151496 -0.173120
v 0.007633 1.335207 -0.097625
v -0.309476 1.201069 -0.026637
v -0.461816 1.099470 0.013003
v -0.395516 1.024475 -0.204120
v -0.297634 0.824986 -0.426373
v -0.490561 0.899657 -0.215309
v -0.572274 0.993471 0.053035
v -0.663957 0.825827 0.113869
v -0.346366 0.630992 -0.440516
v -0.569545 0.715995 -0.196992
v -0.613980 0.565479 -0.170367
v -0.715452 0.684568 0.164324
v -0.717114 0.545378 0.212346
v -0.373923 0.475047 -0.431848
v -0.015347 0.457503 -0.463890
v 0.344083 0.463171 -0.449085
v -0.015024 0.307154 -0.333232
v -0.399466 0.353240 -0.346318
v 0.374923 0.344524 -0.370107
v -0.615592 0.425196 -0.123122
v -0.183840 0.254435 -0.301179
v -0.403621 0.241698 -0.231661
v -0.584298 0.291342 -0.058640
v -0.680462 0.406215 0.259730
v -0.520582 0.227671 0.316841
v -0.329276 0.152108 -0.002051
v -0.478624 0.179307 0.136700
v 0.002610 0.203024 0.322072
v -0.139616 0.159886 -0.045901
v 0.002610 0.203024 0.322072
v -0.009659 0.210645 -0.043193
v 0.156526 0.248806 -0.309350
v 0.147787 0.148750 -0.049453
v 0.309454 0.141543 -0.017385
v 0.385891 0.236606 -0.260734
v 0.566584 0.272305 -0.086268
v 0.466757 0.163668 0.114004
v 0.002610 0.203024 0.322072
v 0.518227 0.210489 0.291902
v 0.680999 0.383696 0.227047
v 0.599160 0.405102 -0.152282
v -0.255852 1.253931 0.118106
v -0.309476 1.201069 -0.026637
v 0.007633 1.335207 -0.097625
v -0.461816 1.099470 0.013003
v -0.143615 1.288144 0.228424
v -0.382669 1.175964 0.226568
v -0.572274 0.993471 0.053035
v -0.216525 1.228243 0.390206
v -0.474705 1.086627 0.316254
v -0.663957 0.825827 0.113869
v 0.015891 1.300725 0.257303
v 0.007633 1.335207 -0.097625
v 0.172712 1.282912 0.220832
v -0.551211 0.932206 0.417704
v -0.715452 0.684568 0.164324
v 0.251282 1.220505 0.378978
v -0.594266 0.797987 0.490662
v -0.717114 0.545378 0.212346
v -0.313869 1.009618 0.652228
v -0.269529 1.152406 0.518585
v 0.019206 1.245167 0.432421
v 0.021296 1.172037 0.570320
v 0.307844 1.142856 0.504725
v 0.278947 1.245085 0.105270
v 0.007633 1.335207 -0.097625
v 0.323175 1.190605 -0.041824
v 0.473801 1.083995 -0.009457
v 0.408234 1.162881 0.207584
v 0.501441 1.070479 0.292821
v 0.582484 0.974371 0.025313
v 0.671395 0.803740 0.081813
v 0.353804 0.998575 0.636200
v 0.577599 0.913534 0.390607
v 0.022361 1.030975 0.711505
v 0.379024 0.870336 0.726026
v 0.619629 0.777907 0.461523
v 0.720552 0.660816 0.129853
v 0.719902 0.521610 0.177850
v -0.338978 0.882212 0.743263
v 0.020999 0.885884 0.755047
v 0.017207 0.682719 0.750678
v 0.401686 0.733676 0.746292
v -0.369884 0.751278 0.765754
v 0.618888 0.637773 0.509214
v 0.186163 0.600316 0.762015
v 0.403052 0.587009 0.737470
v 0.585276 0.492743 0.540449
v 0.680999 0.383696 0.227047
v 0.518227 0.210489 0.291902
v 0.327754 0.325235 0.618323
v 0.477095 0.270771 0.470841
v 0.002610 0.203024 0.322072
v 0.172661 0.368750 0.639594
v 0.002610 0.203024 0.322072
v 0.008949 0.427477 0.582605
v -0.154203 0.605946 0.770186
v -0.146706 0.374032 0.647261
v -0.310981 0.335800 0.633655
v -0.380976 0.609399 0.758119
v -0.565606 0.511781 0.568077
v -0.468289 0.286409 0.493535
v 0.002610 0.203024 0.322072
v -0.520582 0.227671 0.316841
v -0.680462 0.406215 0.259730
v -0.595863 0.657867 0.538374
v 0.056125 0.180355 0.002656
v -0.407460 0.100634 -0.042058
v -0.489671 0.023860 0.337802
v -0.087220 0.165551 0.451853
v -0.655801 0.134219 0.056301
v -0.318854 0.170490 0.614397
v -0.868448 0.096720 0.239313
v -0.579182 0.144073 0.672064
v -0.935045 0.095463 0.384536
v -0.762030 0.126998 0.650480
v -0.973260 0.102065 0.579328
v -0.084919 0.180355 0.002656
v 0.129598 0.132334 0.430739
v 0.497502 0.020449 0.300932
v 0.391166 0.105241 -0.081695
v 0.334215 0.127646 0.592874
v 0.641941 0.163097 0.034938
v 0.593043 0.090996 0.683429
v 0.817975 0.137277 0.227108
v 0.743999 0.090034 0.676400
v 0.893569 0.120323 0.384850
v 0.932059 0.096220 0.605982
vt 0.698637 0.126947
vt 0.336067 0.239346
vt 0.336067 0.015929
vt 0.199102 0.214188
vt 0.199102 0.040703
vt 0.097505 0.189030
vt 0.097505 0.068020
vt 0.060478 0.162957
vt 0.060478 0.094374
vt 0.023452 0.128806
vt 0.698637 0.126947
vt 0.336067 0.239346
vt 0.336067 0.015929
vt 0.199102 0.214188
vt 0.199102 0.040703
vt 0.097505 0.189030
vt 0.097505 0.068020
vt 0.060478 0.162957
vt 0.060478 0.094374
vt 0.023452 0.128806
vt 0.169206 0.993731
vt 0.003645 0.914764
vt 0.169207 0.914764
vt 0.003645 0.832510
vt 0.335221 0.914764
vt 0.169207 0.832510
vt 0.003645 0.742312
vt 0.335221 0.832510
vt 0.169207 0.742312
vt 0.003645 0.639895
vt 0.501236 0.914764
vt 0.501236 0.993731
vt 0.666629 0.914764
vt 0.169207 0.639895
vt 0.003645 0.555588
vt 0.335221 0.742312
vt 0.169207 0.555588
vt 0.003645 0.470904
vt 0.335221 0.639895
vt 0.501236 0.832510
vt 0.501236 0.742312
vt 0.666629 0.832510
vt 0.501236 0.639895
vt 0.832023 0.914764
vt 0.832023 0.993731
vt 0.995975 0.914764
vt 0.995975 0.832510
vt 0.832023 0.832510
vt 0.666629 0.742312
vt 0.832023 0.742312
vt 0.995975 0.742312
vt 0.995975 0.639895
vt 0.666629 0.639895
vt 0.832023 0.639895
vt 0.832023 0.555588
vt 0.995975 0.555588
vt 0.995975 0.470904
vt 0.666629 0.555588
vt 0.501236 0.555588
vt 0.335221 0.555588
vt 0.501236 0.407919
vt 0.666629 0.470904
vt 0.335221 0.470904
vt 0.832023 0.470904
vt 0.583933 0.407919
vt 0.666629 0.407919
vt 0.832023 0.407919
vt 0.995975 0.407919
vt 0.995975 0.332907
vt 0.666629 0.332907
vt 0.832023 0.332907
vt 0.995975 0.258223
vt 0.567393 0.332907
vt 0.501236 0.258223
vt 0.501236 0.332907
vt 0.418539 0.407919
vt 0.418539 0.332907
vt 0.335221 0.332907
vt 0.335221 0.407919
vt 0.169207 0.407919
vt 0.169207 0.332907
vt 0.003642 0.258223
vt 0.003645 0.332907
vt 0.003645 0.407919
vt 0.169207 0.470904
vt 0.170479 0.993731
vt 0.003648 0.914764
vt 0.170479 0.914764
vt 0.003648 0.832510
vt 0.335221 0.914764
vt 0.170479 0.832510
vt 0.003648 0.742312
vt 0.335221 0.832510
vt 0.170479 0.742312
vt 0.003648 0.639895
vt 0.499963 0.914764
vt 0.499963 0.993731
vt 0.665356 0.914764
vt 0.170479 0.639895
vt 0.003648 0.555588
vt 0.665356 0.832510
vt 0.170479 0.555588
vt 0.003648 0.470904
vt 0.335221 0.639895
vt 0.335221 0.742312
vt 0.499963 0.832510
vt 0.499963 0.742312
vt 0.665356 0.742312
vt 0.830750 0.914764
vt 0.830750 0.993731
vt 0.995975 0.914764
vt 0.995975 0.832510
vt 0.830750 0.832510
vt 0.830750 0.742312
vt 0.995975 0.742312
vt 0.995975 0.639895
vt 0.665356 0.639895
vt 0.830750 0.639895
vt 0.499963 0.639895
vt 0.665356 0.555588
vt 0.830750 0.555588
vt 0.995975 0.555588
vt 0.995975 0.470904
vt 0.335221 0.555588
vt 0.499963 0.555588
vt 0.499963 0.407919
vt 0.665356 0.470904
vt 0.335221 0.470904
vt 0.830750 0.470904
vt 0.582660 0.407919
vt 0.665356 0.407919
vt 0.830750 0.407919
vt 0.995975 0.407919
vt 0.995975 0.332907
vt 0.665356 0.332907
vt 0.830750 0.332907
vt 0.995975 0.258223
vt 0.582660 0.332907
vt 0.499963 0.258223
vt 0.499963 0.332907
vt 0.417266 0.407919
vt 0.417266 0.332907
vt 0.335221 0.332907
vt 0.335221 0.407919
vt 0.170479 0.407919
vt 0.170479 0.332907
vt 0.003644 0.258223
vt 0.003648 0.332907
vt 0.003648 0.407919
vt 0.170479 0.470904
vt 0.336067 0.127638
vt 0.336067 0.239346
vt 0.698637 0.126947
vt 0.336067 0.015929
vt 0.199102 0.214188
vt 0.199102 0.040703
vt 0.097505 0.189030
vt 0.097505 0.068020
vt 0.060478 0.162957
vt 0.060478 0.094374
vt 0.023452 0.128806
vt 0.336067 0.127638
vt 0.336067 0.239346
vt 0.698637 0.126947
vt 0.336067 0.015929
vt 0.199102 0.214188
vt 0.199102 0.040703
vt 0.097505 0.189030
vt 0.097505 0.068020
vt 0.060478 0.162957
vt 0.060478 0.094374
vt 0.023452 0.128806
vn 0.2340 -0.9719 -0.0267
vn -0.4717 0.0451 -0.8806
vn 0.8149 0.1742 0.5527
vn -0.5797 0.0488 -0.8134
vn 0.4386 0.1634 0.8837
vn -0.7502 0.0215 -0.6609
vn -0.0553 0.1269 0.9904
vn -0.0972 0.9941 -0.0487
vn -0.0971 0.9941 -0.0486
vn -0.0921 -0.9810 0.1705
vn -0.1931 -0.9801 -0.0459
vn -0.9198 0.0596 0.3878
vn 0.6482 0.1722 -0.7417
vn -0.7217 0.0527 0.6902
vn 0.7644 0.1577 -0.6252
vn -0.1973 0.0215 0.9801
vn 0.8853 0.1270 -0.4474
vn 0.0081 0.9943 0.1061
vn 0.0080 0.9943 0.1060
vn 0.1938 -0.9810 -0.0054
vn -0.0114 0.8610 -0.5085
vn 0.5416 0.7215 -0.4315
vn 0.4704 0.6963 -0.5420
vn 0.6781 0.6868 -0.2617
vn 0.2588 0.4776 -0.8396
vn 0.5825 0.5747 -0.5749
vn 0.8080 0.5022 -0.3081
vn 0.3235 0.5039 -0.8009
vn 0.7243 0.3540 -0.5917
vn 0.9262 0.3462 -0.1494
vn -0.0089 0.6097 -0.7926
vn -0.2962 0.4776 -0.8272
vn 0.7914 0.1922 -0.5803
vn 0.9882 0.1218 -0.0925
vn 0.3870 0.1495 -0.9099
vn 0.8444 -0.0226 -0.5352
vn 0.9914 -0.1301 0.0158
vn 0.4328 0.0529 -0.8999
vn -0.0133 0.4726 -0.8812
vn -0.0196 0.2275 -0.9736
vn -0.3447 0.5151 -0.7848
vn -0.0244 -0.0266 -0.9993
vn -0.4729 0.7117 -0.5195
vn -0.5603 0.7215 -0.4068
vn -0.6666 0.7092 -0.2295
vn -0.5902 0.5939 -0.5467
vn -0.4274 0.1495 -0.8916
vn -0.7398 0.3781 -0.5565
vn -0.8210 0.5022 -0.2716
vn -0.9203 0.3769 -0.1051
vn -0.4735 0.0679 -0.8782
vn -0.8116 0.2186 -0.5418
vn -0.8687 -0.0013 -0.4954
vn -0.9914 0.1218 -0.0481
vn -0.9932 -0.0974 0.0635
vn -0.3993 -0.4135 -0.8183
vn -0.0285 -0.3915 -0.9198
vn 0.3622 -0.4135 -0.8354
vn -0.0121 -0.8406 -0.5416
vn -0.5986 -0.4233 -0.6801
vn 0.5579 -0.4228 -0.7141
vn -0.8744 -0.2718 -0.4021
vn 0.0669 -0.8503 -0.5221
vn -0.3829 -0.8384 -0.3879
vn -0.7369 -0.6292 -0.2472
vn -0.8935 -0.3800 0.2391
vn -0.4690 -0.7705 0.4317
vn -0.0031 -0.9685 0.2490
vn -0.4411 -0.8969 0.0316
vn 0.0108 -0.8758 0.4826
vn 0.1222 -0.9712 -0.2046
vn 0.0030 -0.9912 0.1326
vn -0.1219 -0.8492 -0.5138
vn -0.1484 -0.9677 -0.2038
vn 0.0143 -0.9685 0.2486
vn 0.3651 -0.8384 -0.4047
vn 0.7026 -0.6560 -0.2757
vn 0.4142 -0.9101 0.0086
vn 0.4879 -0.7705 0.4102
vn 0.9034 -0.3800 0.1988
vn 0.8511 -0.2885 -0.4386
vn -0.5604 0.7214 -0.4068
vn -0.4477 0.8941 -0.0124
vn -0.2738 0.9618 -0.0045
vn -0.5700 0.8165 0.0920
vn -0.3160 0.8945 0.3163
vn -0.7159 0.6549 0.2422
vn 0.0215 0.9748 0.2219
vn 0.2733 0.9618 -0.0169
vn -0.7861 0.5205 0.3334
vn 0.3603 0.8832 0.3002
vn -0.8426 0.3303 0.4254
vn -0.9932 -0.0974 0.0634
vn -0.4287 0.6010 0.6745
vn -0.4000 0.8550 0.3301
vn 0.0247 0.9178 0.3962
vn 0.0279 0.7812 0.6237
vn 0.4144 0.8550 0.3118
vn 0.4756 0.8790 -0.0348
vn 0.6002 0.7973 0.0637
vn 0.7478 0.6308 0.2069
vn 0.8080 0.5022 -0.3082
vn 0.4802 0.5860 0.6527
vn 0.8179 0.4941 0.2949
vn 0.0291 0.5954 0.8029
vn 0.3980 0.5095 0.7629
vn 0.8719 0.2979 0.3887
vn -0.3634 0.5095 0.7799
vn 0.0276 0.2676 0.9631
vn 0.0224 0.0760 0.9969
vn 0.6120 0.1185 0.7819
vn -0.5742 0.1541 0.8041
vn 0.8792 0.0320 0.4755
vn -0.1324 -0.3137 0.9402
vn 0.3995 -0.0411 0.9158
vn 0.7529 -0.3295 0.5697
vn 0.0028 -0.7200 0.6939
vn 0.4717 -0.7229 0.5048
vn 0.0108 -0.8758 0.4825
vn -0.1896 -0.5894 0.7853
vn 0.0182 -0.5822 0.8129
vn 0.1589 -0.3185 0.9345
vn 0.2033 -0.5938 0.7785
vn 0.0283 -0.7201 0.6933
vn -0.3581 -0.0411 0.9328
vn -0.7366 -0.3090 0.6016
vn -0.4689 -0.7090 0.5267
vn -0.4691 -0.7705 0.4316
vn -0.8590 0.0664 0.5077
vn 0.0689 -0.9962 0.0532
vn -0.4717 0.0452 -0.8806
vn 0.8149 0.1742 0.5528
vn 0.4385 0.1634 0.8837
vn -0.7501 0.0215 -0.6610
vn -0.0552 0.1269 0.9904
vn -0.1610 -0.9867 -0.0229
vn 0.0168 -0.9451 0.3264
vn -0.0922 -0.9810 0.1705
vn -0.0056 -0.9990 -0.0454
vn -0.1930 -0.9801 -0.0459
vn 0.6482 0.1723 -0.7417
vn -0.1973 0.0214 0.9801
vn 0.0591 -0.9878 0.1443
vn 0.2751 -0.9457 -0.1729
vn 0.1937 -0.9810 -0.0054
usemtl it04_mat_MOMON
s 1
f 3/1/1 2/2/2 1/3/3
f 1/3/3 2/2/2 4/4/4
f 5/5/5 1/3/3 4/4/4
f 5/5/5 4/4/4 6/6/6
f 7/7/7 5/5/5 6/6/6
f 7/7/7 6/6/6 8/8/8
f 9/9/9 7/7/7 8/8/8
f 9/9/9 8/8/8 10/10/10
f 13/11/11 12/12/12 11/13/13
f 11/13/13 12/12/12 14/14/14
f 15/15/15 11/13/13 14/14/14
f 15/15/15 14/14/14 16/16/16
f 17/17/17 15/15/15 16/16/16
f 17/17/17 16/16/16 18/18/18
f 19/19/19 17/17/17 18/18/18
f 19/19/19 18/18/18 20/20/20
f 23/21/21 22/22/22 21/23/23
f 21/23/23 22/22/22 24/24/24
f 23/21/21 21/23/23 25/25/25
f 26/26/26 21/23/23 24/24/24
f 26/26/26 24/24/24 27/27/27
f 28/28/28 25/25/25 21/23/23
f 26/26/26 28/28/28 21/23/23
f 29/29/29 26/26/26 27/27/27
f 26/26/26 29/29/29 28/28/28
f 29/29/29 27/27/27 30/30/30
f 31/31/31 25/25/25 28/28/28
f 32/32/21 25/25/25 31/31/31
f 32/32/21 31/31/31 33/33/32
f 34/34/33 29/29/29 30/30/30
f 34/34/33 30/30/30 35/35/34
f 29/29/29 36/36/35 28/28/28
f 37/37/36 34/34/33 35/35/34
f 37/37/36 35/35/34 38/38/37
f 34/34/33 39/39/38 29/29/29
f 39/39/38 36/36/35 29/29/29
f 34/34/33 37/37/36 39/39/38
f 40/40/39 28/28/28 36/36/35
f 40/40/39 31/31/31 28/28/28
f 41/41/40 36/36/35 39/39/38
f 41/41/40 40/40/39 36/36/35
f 40/40/39 42/42/41 31/31/31
f 40/40/39 41/41/40 42/42/41
f 42/42/41 33/33/32 31/31/31
f 43/43/42 41/41/40 39/39/38
f 44/44/43 33/33/32 42/42/41
f 45/45/21 33/33/32 44/44/43
f 45/45/21 44/44/43 46/46/44
f 47/47/45 46/46/44 44/44/43
f 48/48/46 44/44/43 42/42/41
f 48/48/46 47/47/45 44/44/43
f 41/41/40 49/49/47 42/42/41
f 48/48/46 42/42/41 49/49/47
f 48/48/46 50/50/48 47/47/45
f 50/50/48 48/48/46 49/49/47
f 50/50/48 51/51/49 47/47/45
f 52/52/50 51/51/49 50/50/48
f 53/53/51 49/49/47 41/41/40
f 50/50/48 49/49/47 53/53/51
f 43/43/42 53/53/51 41/41/40
f 54/54/52 52/52/50 50/50/48
f 54/54/52 50/50/48 53/53/51
f 54/54/52 55/55/53 52/52/50
f 55/55/53 56/56/54 52/52/50
f 57/57/55 56/56/54 55/55/53
f 54/54/52 53/53/51 58/58/56
f 55/55/53 54/54/52 58/58/56
f 43/43/42 59/59/57 53/53/51
f 59/59/57 58/58/56 53/53/51
f 59/59/57 43/43/42 60/60/58
f 43/43/42 39/39/38 60/60/58
f 37/37/36 60/60/58 39/39/38
f 61/61/59 58/58/56 59/59/57
f 61/61/59 59/59/57 60/60/58
f 55/55/53 58/58/56 62/62/60
f 63/63/61 60/60/58 37/37/36
f 64/64/62 55/55/53 62/62/60
f 64/64/62 57/57/55 55/55/53
f 65/65/63 62/62/60 58/58/56
f 61/61/59 65/65/63 58/58/56
f 64/64/62 62/62/60 66/66/64
f 65/65/63 66/66/64 62/62/60
f 64/64/62 67/67/65 57/57/55
f 67/67/65 64/64/62 66/66/64
f 67/67/65 68/68/66 57/57/55
f 69/69/67 68/68/66 67/67/65
f 70/70/68 66/66/64 65/65/63
f 67/67/65 66/66/64 70/70/68
f 71/71/69 69/69/67 67/67/65
f 71/71/69 67/67/65 70/70/68
f 69/69/67 71/71/69 72/72/70
f 71/71/69 70/70/68 72/72/70
f 73/73/71 70/70/68 65/65/63
f 73/73/71 65/65/63 61/61/59
f 73/73/71 74/74/70 70/70/68
f 75/75/72 73/73/71 61/61/59
f 73/73/71 75/75/72 74/74/70
f 75/75/72 61/61/59 76/76/73
f 76/76/73 61/61/59 60/60/58
f 77/77/74 74/74/70 75/75/72
f 77/77/74 75/75/72 76/76/73
f 77/77/74 78/78/75 74/74/70
f 77/77/74 76/76/73 78/78/75
f 76/76/73 60/60/58 63/63/61
f 76/76/73 79/79/76 78/78/75
f 76/76/73 63/63/61 79/79/76
f 78/78/75 79/79/76 80/80/77
f 80/80/77 79/79/76 63/63/61
f 81/81/78 78/78/75 80/80/77
f 82/82/70 78/78/75 81/81/78
f 82/82/70 81/81/78 83/83/79
f 81/81/78 80/80/77 83/83/79
f 80/80/77 84/84/80 83/83/79
f 85/85/81 80/80/77 63/63/61
f 80/80/77 85/85/81 84/84/80
f 85/85/81 63/63/61 37/37/36
f 85/85/81 38/38/37 84/84/80
f 85/85/81 37/37/36 38/38/37
f 88/86/21 87/87/82 86/88/83
f 86/88/83 87/87/82 89/89/45
f 88/86/21 86/88/83 90/90/84
f 91/91/85 86/88/83 89/89/45
f 91/91/85 89/89/45 92/92/49
f 93/93/86 90/90/84 86/88/83
f 91/91/85 93/93/86 86/88/83
f 94/94/87 91/91/85 92/92/49
f 91/91/85 94/94/87 93/93/86
f 94/94/87 92/92/49 95/95/50
f 96/96/88 90/90/84 93/93/86
f 97/97/21 90/90/84 96/96/88
f 97/97/21 96/96/88 98/98/89
f 99/99/90 94/94/87 95/95/50
f 99/99/90 95/95/50 100/100/54
f 101/101/91 98/98/89 96/96/88
f 102/102/92 99/99/90 100/100/54
f 102/102/92 100/100/54 103/103/93
f 99/99/90 104/104/94 94/94/87
f 99/99/90 102/102/92 104/104/94
f 94/94/87 105/105/95 93/93/86
f 104/104/94 105/105/95 94/94/87
f 106/106/96 96/96/88 93/93/86
f 106/106/96 93/93/86 105/105/95
f 106/106/96 101/101/91 96/96/88
f 107/107/97 106/106/96 105/105/95
f 107/107/97 105/105/95 104/104/94
f 108/108/98 101/101/91 106/106/96
f 107/107/97 108/108/98 106/106/96
f 109/109/99 98/98/89 101/101/91
f 110/110/21 98/98/89 109/109/99
f 110/110/21 109/109/99 111/111/22
f 112/112/24 111/111/22 109/109/99
f 113/113/100 109/109/99 101/101/91
f 113/113/100 112/112/24 109/109/99
f 113/113/100 101/101/91 108/108/98
f 113/113/100 114/114/101 112/112/24
f 114/114/101 113/113/100 108/108/98
f 114/114/101 115/115/102 112/112/24
f 116/116/30 115/115/102 114/114/101
f 114/114/101 108/108/98 117/117/103
f 117/117/103 108/108/98 107/107/97
f 118/118/104 116/116/30 114/114/101
f 118/118/104 114/114/101 117/117/103
f 119/119/105 117/117/103 107/107/97
f 119/119/105 107/107/97 104/104/94
f 118/118/104 117/117/103 120/120/106
f 120/120/106 117/117/103 119/119/105
f 118/118/104 121/121/107 116/116/30
f 121/121/107 118/118/104 120/120/106
f 121/121/107 122/122/34 116/116/30
f 123/123/37 122/122/34 121/121/107
f 119/119/105 104/104/94 124/124/108
f 102/102/92 124/124/108 104/104/94
f 125/125/109 120/120/106 119/119/105
f 125/125/109 119/119/105 124/124/108
f 126/126/110 120/120/106 125/125/109
f 126/126/110 125/125/109 124/124/108
f 121/121/107 120/120/106 127/127/111
f 128/128/112 124/124/108 102/102/92
f 129/129/113 121/121/107 127/127/111
f 129/129/113 123/123/37 121/121/107
f 130/130/114 127/127/111 120/120/106
f 126/126/110 130/130/114 120/120/106
f 129/129/113 127/127/111 131/131/115
f 130/130/114 131/131/115 127/127/111
f 129/129/113 132/132/116 123/123/37
f 132/132/116 129/129/113 131/131/115
f 132/132/116 133/133/80 123/123/37
f 134/134/79 133/133/80 132/132/116
f 135/135/117 131/131/115 130/130/114
f 132/132/116 131/131/115 135/135/117
f 136/136/118 134/134/79 132/132/116
f 136/136/118 132/132/116 135/135/117
f 137/137/119 134/134/79 136/136/118
f 137/137/119 136/136/118 135/135/117
f 138/138/120 135/135/117 130/130/114
f 138/138/120 130/130/114 126/126/110
f 138/138/120 139/139/70 135/135/117
f 140/140/121 138/138/120 126/126/110
f 138/138/120 140/140/121 139/139/70
f 140/140/121 126/126/110 141/141/122
f 141/141/122 126/126/110 124/124/108
f 142/142/123 139/139/70 140/140/121
f 142/142/123 140/140/121 141/141/122
f 142/142/123 143/143/124 139/139/70
f 142/142/123 141/141/122 143/143/124
f 141/141/122 124/124/108 128/128/112
f 141/141/122 144/144/125 143/143/124
f 141/141/122 128/128/112 144/144/125
f 143/143/124 144/144/125 145/145/126
f 145/145/126 144/144/125 128/128/112
f 146/146/127 143/143/124 145/145/126
f 146/146/127 147/147/70 143/143/124
f 146/146/127 148/148/128 147/147/70
f 146/146/127 145/145/126 148/148/128
f 145/145/126 149/149/66 148/148/128
f 150/150/129 145/145/126 128/128/112
f 145/145/126 150/150/129 149/149/66
f 150/150/129 128/128/112 102/102/92
f 150/150/129 103/103/93 149/149/66
f 150/150/129 102/102/92 103/103/93
f 153/151/130 152/152/131 151/153/1
f 154/154/132 153/151/130 151/153/1
f 155/155/4 152/152/131 153/151/130
f 156/156/133 153/151/130 154/154/132
f 157/157/134 155/155/4 153/151/130
f 156/156/133 158/158/135 153/151/130
f 159/159/136 157/157/134 153/151/130
f 160/160/137 153/151/130 158/158/135
f 161/161/138 159/159/136 153/151/130
f 160/160/137 161/161/138 153/151/130
f 164/162/139 163/163/12 162/164/140
f 165/165/141 164/162/139 162/164/140
f 166/166/14 163/163/12 164/162/139
f 167/167/15 164/162/139 165/165/141
f 168/168/142 166/166/14 164/162/139
f 167/167/15 169/169/17 164/162/139
f 170/170/143 168/168/142 164/162/139
f 171/171/144 164/162/139 169/169/17
f 172/172/145 170/170/143 164/162/139
f 171/171/144 172/172/145 164/162/139
